<?xml version="1.0" encoding="UTF-8" standalone="no"?>
<!DOCTYPE svg PUBLIC "-//W3C//DTD SVG 1.1//EN" "http://www.w3.org/Graphics/SVG/1.1/DTD/svg11.dtd">
<svg width="100%" height="100%" viewBox="0 0 214 156" version="1.1" xmlns="http://www.w3.org/2000/svg" xmlns:xlink="http://www.w3.org/1999/xlink" xml:space="preserve" xmlns:serif="http://www.serif.com/" style="fill-rule:evenodd;clip-rule:evenodd;stroke-linecap:round;stroke-linejoin:round;stroke-miterlimit:1.5;">
    <g transform="matrix(1,0,0,1,-1673.15,-283.129)">
        <g id="logo" transform="matrix(0.823077,0,0,0.866754,314.748,48.3171)">
            <rect x="1650.39" y="270.909" width="260" height="179.982" style="fill:none;"/>
            <g transform="matrix(1.21495,0,0,1.15373,-383.178,-56.5297)">
                <g transform="matrix(0.29997,-0.519563,0.519563,0.29997,1261.11,436.801)">
                    <path d="M606.218,650L519.615,700L606.218,750L692.82,700L606.218,650Z" style="fill:rgb(133,176,153);"/>
                </g>
                <g transform="matrix(0.29997,-0.519563,0.519563,0.29997,1157.2,496.795)">
                    <path d="M606.218,650L519.615,700L606.218,750L692.82,700L606.218,650Z" style="fill:rgb(133,176,153);"/>
                </g>
                <g transform="matrix(0.29997,0.519563,-0.519563,0.29997,1936.54,-193.135)">
                    <path d="M606.218,650L519.615,700L606.218,750L692.82,700L606.218,650Z" style="fill:rgb(185,63,255);"/>
                </g>
                <g transform="matrix(0.29997,0.519563,-0.519563,0.29997,2040.46,-133.141)">
                    <path d="M606.218,650L519.615,700L606.218,750L692.82,700L606.218,650Z" style="fill:rgb(185,63,255);"/>
                </g>
                <g transform="matrix(-0.29997,0.519563,-0.519563,-0.29997,2248.28,226.822)">
                    <path d="M606.218,650L519.615,700L606.218,750L692.82,700L606.218,650Z" style="fill:rgb(255,62,181);"/>
                </g>
                <g transform="matrix(0.29997,0.519563,-0.519563,0.29997,2040.68,-192.647)">
                    <path d="M606.218,650L519.615,700L606.218,750L692.82,700L606.218,650Z" style="fill:rgb(255,62,181);"/>
                </g>
                <g transform="matrix(0.59994,0,0,0.59994,698.201,164.019)">
                    <path d="M1717.7,404.684L1631.1,454.684L1631.1,354.684L1717.7,404.684ZM1717.7,304.684L1631.1,354.684L1631.1,254.684L1717.7,304.684ZM1890.91,304.684L1804.31,354.684L1804.31,254.684L1890.91,304.684ZM1890.91,304.684L1977.51,254.684L1977.51,354.684L1890.91,304.684ZM1890.91,404.684L1977.51,354.684L1977.51,454.684L1890.91,404.684ZM1977.51,354.684L1890.91,404.684L1890.91,304.684L1977.51,354.684ZM1804.31,254.684L1717.7,304.684L1717.7,204.684L1804.31,254.684ZM1977.51,254.684L1890.91,304.684L1890.91,204.684L1977.51,254.684ZM1631.1,354.684L1717.7,304.684L1717.7,404.684L1631.1,354.684ZM1804.31,254.684L1890.91,204.684L1890.91,304.684L1804.31,254.684ZM1631.1,254.684L1717.7,204.684L1717.7,304.684L1631.1,254.684ZM1717.7,304.684L1804.31,254.684L1804.31,354.684L1717.7,304.684Z" style="fill:none;stroke:black;stroke-width:6.67px;"/>
                </g>
            </g>
        </g>
    </g>
</svg>
